# xmcd CD database file
#
# Track frame offsets:
#	150
#	16085
#	33816
#	52662
#	72297
#	94755
#	110587
#	127381
#	146119
#	171174
#	192909
#
# Disc length: 3209 seconds
#
# Revision: 2
# Processed by: cddbd v1.5.2PL0 Copyright (c) Steve Scherf et al.
# Submitted via: CDex 1.51
#
DISCID=950c870b
DTITLE=Django Walker - Six Trips Around The World
DYEAR=2006
DGENRE=Country
TTITLE0=All I Need
TTITLE1=Wake Up
TTITLE2=Life's Great Mysteries
TTITLE3=Better Piece Of Mind
TTITLE4=Her (She's Gone)
TTITLE5=Shook You Up
TTITLE6=Lighter Shade Of Blue
TTITLE7=Things I Can't Change
TTITLE8=Unwind
TTITLE9=One Lane Road
TTITLE10=Hope Street
EXTD=YEAR: 2006
EXTT0=
EXTT1=
EXTT2=
EXTT3=
EXTT4=
EXTT5=
EXTT6=
EXTT7=
EXTT8=
EXTT9=
EXTT10=
PLAYORDER=
